<svg xmlns="http://www.w3.org/2000/svg" viewBox="0 0 1280 720" role="img" aria-labelledby="title desc">
  <title id="title">Getting started cover</title>
  <desc id="desc">Abstract cover with warm gradients and onboarding steps.</desc>
  <defs>
    <linearGradient id="bg" x1="0" y1="0" x2="1" y2="1">
      <stop offset="0%" stop-color="#12141c"/>
      <stop offset="48%" stop-color="#1b2230"/>
      <stop offset="100%" stop-color="#27384d"/>
    </linearGradient>
    <linearGradient id="panel" x1="0" y1="0" x2="1" y2="1">
      <stop offset="0%" stop-color="#f1d8a1" stop-opacity="0.95"/>
      <stop offset="100%" stop-color="#b78f41" stop-opacity="0.85"/>
    </linearGradient>
    <linearGradient id="accent" x1="0" y1="0" x2="1" y2="0">
      <stop offset="0%" stop-color="#69d8c3"/>
      <stop offset="100%" stop-color="#8ab6ff"/>
    </linearGradient>
    <filter id="blur" x="-20%" y="-20%" width="140%" height="140%">
      <feGaussianBlur stdDeviation="24"/>
    </filter>
  </defs>

  <rect width="1280" height="720" fill="url(#bg)"/>
  <circle cx="1120" cy="132" r="136" fill="#69d8c3" opacity="0.16" filter="url(#blur)"/>
  <circle cx="180" cy="640" r="170" fill="#8ab6ff" opacity="0.18" filter="url(#blur)"/>

  <rect x="90" y="96" width="470" height="528" rx="34" fill="#0f141c" opacity="0.92" stroke="#3a4c63"/>
  <rect x="126" y="140" width="398" height="18" rx="9" fill="url(#accent)" opacity="0.9"/>
  <rect x="126" y="188" width="182" height="28" rx="14" fill="#f5efe1" opacity="0.92"/>
  <rect x="126" y="242" width="300" height="16" rx="8" fill="#8da6c7" opacity="0.7"/>
  <rect x="126" y="272" width="260" height="16" rx="8" fill="#8da6c7" opacity="0.55"/>

  <g transform="translate(126 344)">
    <rect width="318" height="68" rx="18" fill="#17212d" stroke="#32465d"/>
    <circle cx="36" cy="34" r="15" fill="#69d8c3"/>
    <path d="M29 34l5 5 10-12" fill="none" stroke="#0d1722" stroke-width="6" stroke-linecap="round" stroke-linejoin="round"/>
    <rect x="72" y="22" width="110" height="12" rx="6" fill="#f1f5f9"/>
    <rect x="72" y="42" width="160" height="10" rx="5" fill="#8da6c7" opacity="0.75"/>
  </g>

  <g transform="translate(126 430)">
    <rect width="356" height="68" rx="18" fill="#17212d" stroke="#32465d"/>
    <circle cx="36" cy="34" r="15" fill="#69d8c3" opacity="0.82"/>
    <path d="M29 34l5 5 10-12" fill="none" stroke="#0d1722" stroke-width="6" stroke-linecap="round" stroke-linejoin="round"/>
    <rect x="72" y="22" width="132" height="12" rx="6" fill="#f1f5f9"/>
    <rect x="72" y="42" width="200" height="10" rx="5" fill="#8da6c7" opacity="0.75"/>
  </g>

  <g transform="translate(640 88)">
    <rect width="548" height="548" rx="44" fill="url(#panel)"/>
    <rect x="78" y="84" width="392" height="244" rx="26" fill="#0f141c" opacity="0.92"/>
    <path d="M128 282c42-72 86-108 132-108 35 0 69 15 103 44 31 27 58 40 80 40 39 0 73-21 104-64l29 20c-42 63-87 94-136 94-33 0-67-13-102-39-32-24-60-36-84-36-34 0-67 28-98 84z" fill="#69d8c3"/>
    <circle cx="272" cy="206" r="46" fill="#8ab6ff" opacity="0.92"/>
    <rect x="78" y="372" width="188" height="22" rx="11" fill="#0f141c" opacity="0.88"/>
    <rect x="78" y="414" width="300" height="16" rx="8" fill="#243447" opacity="0.6"/>
    <rect x="78" y="444" width="262" height="16" rx="8" fill="#243447" opacity="0.44"/>
    <rect x="78" y="484" width="164" height="56" rx="18" fill="#0f141c" opacity="0.88"/>
    <rect x="102" y="506" width="114" height="12" rx="6" fill="#f5efe1" opacity="0.88"/>
  </g>
</svg>