<svg xmlns="http://www.w3.org/2000/svg" viewBox="0 0 1280 720" role="img" aria-labelledby="title desc">
  <title id="title">Quick links cover</title>
  <desc id="desc">Abstract navigation cover with cards and directional accents.</desc>
  <defs>
    <linearGradient id="bg" x1="0" y1="0" x2="1" y2="1">
      <stop offset="0%" stop-color="#10261f"/>
      <stop offset="45%" stop-color="#16372d"/>
      <stop offset="100%" stop-color="#1e4d3e"/>
    </linearGradient>
    <linearGradient id="card" x1="0" y1="0" x2="1" y2="1">
      <stop offset="0%" stop-color="#f3f0e7"/>
      <stop offset="100%" stop-color="#d5ddd1"/>
    </linearGradient>
    <linearGradient id="accent" x1="0" y1="0" x2="1" y2="0">
      <stop offset="0%" stop-color="#69d8c3"/>
      <stop offset="100%" stop-color="#d3b874"/>
    </linearGradient>
    <filter id="blur" x="-20%" y="-20%" width="140%" height="140%">
      <feGaussianBlur stdDeviation="26"/>
    </filter>
  </defs>

  <rect width="1280" height="720" fill="url(#bg)"/>
  <circle cx="154" cy="138" r="126" fill="#69d8c3" opacity="0.18" filter="url(#blur)"/>
  <circle cx="1090" cy="598" r="170" fill="#d3b874" opacity="0.16" filter="url(#blur)"/>

  <g transform="translate(98 112)">
    <rect width="452" height="480" rx="42" fill="#0f1714" opacity="0.94" stroke="#385247"/>
    <rect x="44" y="48" width="162" height="18" rx="9" fill="url(#accent)"/>
    <rect x="44" y="100" width="278" height="18" rx="9" fill="#f3f0e7" opacity="0.94"/>
    <rect x="44" y="136" width="212" height="14" rx="7" fill="#9cb5ac" opacity="0.58"/>

    <g transform="translate(44 204)">
      <rect width="364" height="86" rx="24" fill="#17231e" stroke="#33493f"/>
      <rect x="28" y="24" width="116" height="12" rx="6" fill="#f3f0e7"/>
      <rect x="28" y="46" width="176" height="10" rx="5" fill="#8aa196" opacity="0.82"/>
      <circle cx="320" cy="43" r="20" fill="#22362d"/>
      <path d="M311 43h18M321 34l9 9-9 9" fill="none" stroke="#69d8c3" stroke-width="6" stroke-linecap="round" stroke-linejoin="round"/>
    </g>

    <g transform="translate(44 310)">
      <rect width="330" height="86" rx="24" fill="#17231e" stroke="#33493f"/>
      <rect x="28" y="24" width="96" height="12" rx="6" fill="#f3f0e7"/>
      <rect x="28" y="46" width="156" height="10" rx="5" fill="#8aa196" opacity="0.82"/>
      <circle cx="286" cy="43" r="20" fill="#22362d"/>
      <path d="M277 43h18M287 34l9 9-9 9" fill="none" stroke="#69d8c3" stroke-width="6" stroke-linecap="round" stroke-linejoin="round"/>
    </g>
  </g>

  <g transform="translate(646 100)">
    <rect width="536" height="520" rx="44" fill="url(#card)" opacity="0.98"/>
    <rect x="58" y="56" width="420" height="248" rx="28" fill="#0f1714" opacity="0.94"/>
    <g transform="translate(110 114)">
      <rect width="116" height="116" rx="28" fill="#69d8c3"/>
      <path d="M40 58h36M58 40l18 18-18 18" fill="none" stroke="#0f1714" stroke-width="10" stroke-linecap="round" stroke-linejoin="round"/>
    </g>
    <g transform="translate(250 114)">
      <rect width="116" height="116" rx="28" fill="#d3b874"/>
      <path d="M40 58h36M58 40l18 18-18 18" fill="none" stroke="#0f1714" stroke-width="10" stroke-linecap="round" stroke-linejoin="round"/>
    </g>
    <g transform="translate(180 272)">
      <rect width="116" height="116" rx="28" fill="#8ab6ff"/>
      <path d="M40 58h36M58 40l18 18-18 18" fill="none" stroke="#0f1714" stroke-width="10" stroke-linecap="round" stroke-linejoin="round"/>
    </g>
    <rect x="58" y="360" width="204" height="18" rx="9" fill="#10261f" opacity="0.92"/>
    <rect x="58" y="396" width="294" height="14" rx="7" fill="#425b52" opacity="0.6"/>
    <rect x="58" y="424" width="248" height="14" rx="7" fill="#425b52" opacity="0.42"/>
    <rect x="58" y="470" width="172" height="58" rx="18" fill="#10261f" opacity="0.92"/>
    <rect x="84" y="493" width="120" height="12" rx="6" fill="#f3f0e7" opacity="0.92"/>
  </g>
</svg>